HIERARCHY
ROOT Hips
{
	OFFSET -0.001795 -0.223333 0.028219
	CHANNELS 6 Xposition Yposition Zposition Zrotation Yrotation Xrotation 
	JOINT LeftUpLeg
	{
		OFFSET 0.069520 -0.091406 -0.006815
		CHANNELS 3 Zrotation Yrotation Xrotation
		JOINT LeftLeg
		{
			OFFSET 0.034277 -0.375199 -0.004496
			CHANNELS 3 Zrotation Yrotation Xrotation
			JOINT LeftFoot
			{
				OFFSET -0.013596 -0.397961 -0.043693
				CHANNELS 3 Zrotation Yrotation Xrotation
				JOINT LeftToe
				{
					OFFSET 0.026358 -0.055791 0.119288
					CHANNELS 3 Zrotation Yrotation Xrotation
					End Site
					{
						OFFSET 0.000000 0.000000 0.000000
					}
				}
			}
		}
	}
	JOINT RightUpLeg
	{
		OFFSET -0.067670 -0.090522 -0.004320
		CHANNELS 3 Zrotation Yrotation Xrotation
		JOINT RightLeg
		{
			OFFSET -0.038290 -0.382569 -0.008850
			CHANNELS 3 Zrotation Yrotation Xrotation
			JOINT RightFoot
			{
				OFFSET 0.015774 -0.398415 -0.042312
				CHANNELS 3 Zrotation Yrotation Xrotation
				JOINT RightToe
				{
					OFFSET -0.025372 -0.048144 0.123348
					CHANNELS 3 Zrotation Yrotation Xrotation
					End Site
					{
						OFFSET 0.000000 0.000000 0.000000
					}
				}
			}
		}
	}
	JOINT Spine
	{
		OFFSET -0.002533 0.108963 -0.026696
		CHANNELS 3 Zrotation Yrotation Xrotation
		JOINT Spine1
		{
			OFFSET 0.005487 0.135180 0.001092
			CHANNELS 3 Zrotation Yrotation Xrotation
			JOINT Spine2
			{
				OFFSET 0.001457 0.052922 0.025425
				CHANNELS 3 Zrotation Yrotation Xrotation
				JOINT Neck
				{
					OFFSET -0.002778 0.213870 -0.042857
					CHANNELS 3 Zrotation Yrotation Xrotation
					JOINT Head
					{
						OFFSET 0.005152 0.064970 0.051349
						CHANNELS 3 Zrotation Yrotation Xrotation
						End Site
						{
							OFFSET 0.000000 0.000000 0.000000
						}
					}
				}
				JOINT LeftShoulder
				{
					OFFSET 0.078845 0.121749 -0.034090
					CHANNELS 3 Zrotation Yrotation Xrotation
					JOINT LeftArm
					{
						OFFSET 0.090977 0.030469 -0.008868
						CHANNELS 3 Zrotation Yrotation Xrotation
						JOINT LeftForeArm
						{
							OFFSET 0.259612 -0.012772 -0.027456
							CHANNELS 3 Zrotation Yrotation Xrotation
							JOINT LeftHand
							{
								OFFSET 0.249234 0.008986 -0.001171
								CHANNELS 3 Zrotation Yrotation Xrotation
								End Site
								{
									OFFSET 0.000000 0.000000 0.000000
								}
							}
						}
					}
				}
				JOINT RightShoulder
				{
					OFFSET -0.081759 0.118833 -0.038615
					CHANNELS 3 Zrotation Yrotation Xrotation
					JOINT RightArm
					{
						OFFSET -0.096012 0.032551 -0.009143
						CHANNELS 3 Zrotation Yrotation Xrotation
						JOINT RightForeArm
						{
							OFFSET -0.253742 -0.013329 -0.021401
							CHANNELS 3 Zrotation Yrotation Xrotation
							JOINT RightHand
							{
								OFFSET -0.255298 0.007772 -0.005559
								CHANNELS 3 Zrotation Yrotation Xrotation
								End Site
								{
									OFFSET 0.000000 0.000000 0.000000
								}
							}
						}
					}
				}
			}
		}
	}
}
MOTION
Frames: 11
Frame Time: 0.050000
-0.101741 0.944355 0.076286 -0.625421 52.415532 -1.889867 9.359117 -1.256800 -8.264648 -6.779881 -0.463350 8.985918 11.460023 22.427129 16.434999 0.000000 0.000000 0.000000 -9.117461 -1.727637 -6.717824 4.642213 -1.708648 5.396836 -2.323541 -3.140337 14.581505 0.000000 0.000000 0.000000 -4.128096 -5.941888 34.765591 -8.244156 2.916887 -24.988095 -2.624216 15.637826 27.147322 16.762819 -3.837692 -20.937903 0.000000 0.000000 0.000000 -7.711542 -27.535921 3.690487 -40.998262 -15.907879 0.044945 -1.250276 -62.367460 -7.414252 0.000000 0.000000 0.000000 26.490692 6.069115 16.559392 55.463934 45.074763 13.251319 12.099110 47.735564 10.719203 0.000000 0.000000 0.000000 
-0.102245 0.944454 0.075991 -0.585924 52.477479 -1.604597 9.189905 -1.259768 -8.601791 -6.569424 -0.452989 8.675500 11.269758 22.335534 16.651511 0.000000 0.000000 0.000000 -9.234833 -1.770721 -6.955339 4.722293 -1.737903 5.423179 -2.278940 -3.062921 14.484562 0.000000 0.000000 0.000000 -4.419203 -5.998540 35.163615 -7.951650 2.885167 -24.950912 -2.746910 15.637410 27.105351 16.711204 -4.163258 -20.083312 0.000000 0.000000 0.000000 -8.192813 -27.862575 3.663899 -40.267419 -15.393526 0.086231 -1.421271 -61.723094 -7.062419 0.000000 0.000000 0.000000 26.700173 6.242006 16.780569 55.037107 45.114821 12.984512 11.596900 47.740343 10.457753 0.000000 0.000000 0.000000 
-0.102777 0.944979 0.076011 -0.740725 52.432975 -1.408394 9.185386 -1.281014 -8.975883 -6.271018 -0.456465 8.653163 11.136184 22.262107 16.689698 0.000000 0.000000 0.000000 -9.130938 -1.737977 -7.087282 4.848022 -1.729055 5.039674 -2.482705 -3.388006 14.638436 0.000000 0.000000 0.000000 -4.590506 -6.037682 35.440645 -7.830235 2.858957 -25.020828 -2.787400 15.627588 26.996025 16.745162 -4.382764 -19.668581 0.000000 0.000000 0.000000 -8.291836 -27.967511 3.698483 -39.818567 -15.264131 0.108638 -2.287911 -61.309970 -6.390014 0.000000 0.000000 0.000000 27.040392 6.228036 16.919655 54.714861 45.164780 12.755964 11.090048 47.846494 10.240915 0.000000 0.000000 0.000000 
-0.103243 0.945456 0.076368 -0.777619 52.463011 -1.150680 9.211339 -1.309568 -9.362509 -6.334604 -0.457437 8.638205 11.087977 22.305885 16.906919 0.000000 0.000000 0.000000 -8.972243 -1.699110 -7.256306 4.818149 -1.693683 4.799930 -2.455793 -3.328429 14.544693 0.000000 0.000000 0.000000 -4.797374 -6.103726 35.796234 -7.481725 2.778943 -25.237628 -3.007140 15.583990 26.827095 16.859150 -4.469702 -19.728827 0.000000 0.000000 0.000000 -8.080773 -27.935415 3.769960 -39.538132 -15.083617 0.056660 -3.450639 -61.798009 -5.796188 0.000000 0.000000 0.000000 27.037765 6.083644 16.793804 55.136697 45.056242 12.897510 10.855234 48.084865 10.261446 0.000000 0.000000 0.000000 
-0.103369 0.945699 0.076968 -0.907931 52.309615 -0.991047 9.265103 -1.325997 -9.549313 -6.310304 -0.447005 8.513941 11.186238 22.400334 16.833984 0.000000 0.000000 0.000000 -8.873541 -1.663190 -7.333602 4.756358 -1.650593 4.621623 -2.507716 -3.423144 14.508093 0.000000 0.000000 0.000000 -4.879458 -6.045561 35.751703 -7.273329 2.713885 -25.519583 -3.112590 15.475932 26.898714 16.839439 -4.461042 -19.774733 0.000000 0.000000 0.000000 -7.840076 -27.877367 3.859802 -39.671164 -15.251517 0.009828 -5.041545 -62.631159 -4.966585 0.000000 0.000000 0.000000 27.464968 5.788111 16.783667 55.092012 44.898464 12.631719 11.441693 48.878644 10.868337 0.000000 0.000000 0.000000 
-0.103050 0.945768 0.077730 -0.970160 52.469126 -0.983279 9.221985 -1.324794 -9.525281 -6.151518 -0.450560 8.456983 10.862716 22.066304 16.676777 0.000000 0.000000 0.000000 -8.661468 -1.606821 -7.203606 4.595535 -1.588630 4.428624 -2.655752 -3.673179 14.381025 0.000000 0.000000 0.000000 -4.811417 -6.103303 35.796538 -6.972286 2.670304 -25.513494 -3.462635 15.325740 26.675842 16.959788 -4.451577 -20.058012 0.000000 0.000000 0.000000 -8.057309 -28.075093 3.870389 -39.435896 -15.205624 0.078936 -7.212820 -63.357284 -3.722164 0.000000 0.000000 0.000000 27.963198 5.431298 16.781503 55.049030 44.584492 12.270311 11.905784 49.494256 11.371750 0.000000 0.000000 0.000000 
-0.102473 0.945350 0.078626 -0.934765 52.367785 -1.038178 9.169957 -1.300034 -9.234596 -6.206340 -0.435849 8.285856 10.987194 22.107147 16.480611 0.000000 0.000000 0.000000 -8.750268 -1.611443 -6.913564 4.637787 -1.591716 4.351154 -2.696116 -3.788081 14.240135 0.000000 0.000000 0.000000 -4.692187 -6.097312 35.710790 -6.773210 2.626253 -25.645635 -3.861851 15.320072 26.715446 16.835756 -4.253186 -20.304206 0.000000 0.000000 0.000000 -8.340815 -28.288578 3.861527 -39.342465 -15.119381 0.125717 -8.745611 -63.969839 -2.832785 0.000000 0.000000 0.000000 28.414596 4.930625 16.669895 55.096774 44.108981 11.859021 12.847968 50.330585 12.232262 0.000000 0.000000 0.000000 
-0.101949 0.945228 0.079531 -0.926874 52.410242 -1.258767 9.028788 -1.266313 -8.909845 -6.043038 -0.432435 8.179678 10.637327 21.706055 16.239482 0.000000 0.000000 0.000000 -8.618655 -1.564995 -6.499712 4.446918 -1.530850 4.272123 -2.731102 -3.865284 14.126311 0.000000 0.000000 0.000000 -4.614267 -6.154833 35.791596 -6.803197 2.657725 -25.465011 -4.045597 15.055159 26.526174 16.688462 -4.007351 -20.739835 0.000000 0.000000 0.000000 -8.651448 -28.313910 3.823612 -39.324326 -15.288376 0.243598 -10.378927 -64.036477 -1.743030 0.000000 0.000000 0.000000 28.701522 4.811444 16.629475 55.192867 43.772993 11.615458 13.163623 50.952560 12.673425 0.000000 0.000000 0.000000 
-0.101686 0.945059 0.080305 -0.738601 52.505326 -1.352798 8.871689 -1.227770 -8.500481 -6.076022 -0.418853 7.936726 10.379947 21.365243 15.946297 0.000000 0.000000 0.000000 -8.759024 -1.593130 -6.107528 4.427348 -1.532930 4.319758 -2.716807 -3.885707 13.897365 0.000000 0.000000 0.000000 -4.571431 -6.210003 35.898737 -6.735472 2.657928 -25.432665 -4.261801 14.950923 26.478244 16.683208 -3.933652 -20.984705 0.000000 0.000000 0.000000 -8.999502 -28.360584 3.763405 -39.241564 -15.312517 0.316790 -11.559914 -63.907556 -0.919980 0.000000 0.000000 0.000000 28.963558 4.724806 16.651097 54.963136 43.510330 11.273382 13.426833 51.199165 12.899349 0.000000 0.000000 0.000000 
-0.101727 0.945082 0.080884 -0.639671 52.520374 -1.408901 8.753063 -1.204161 -8.301317 -6.033839 -0.420124 7.953647 10.135010 21.049019 15.633536 0.000000 0.000000 0.000000 -8.734953 -1.587086 -6.026822 4.331970 -1.523720 4.494474 -2.647432 -3.824609 13.533207 0.000000 0.000000 0.000000 -4.592818 -6.283822 36.128783 -6.906489 2.690327 -25.381332 -4.315465 14.853601 26.290493 16.506516 -3.641958 -21.457071 0.000000 0.000000 0.000000 -9.000548 -28.362711 3.787378 -39.198557 -15.468671 0.392246 -12.115384 -63.565098 -0.549785 0.000000 0.000000 0.000000 29.002717 4.713671 16.579555 54.869691 43.384307 11.173145 13.900514 51.106446 13.088459 0.000000 0.000000 0.000000 
-0.102036 0.945032 0.081338 -0.461032 52.621222 -1.475928 8.460829 -1.155915 -7.940157 -5.757000 -0.410155 7.691320 9.612871 20.407601 15.146412 0.000000 0.000000 0.000000 -8.748690 -1.590474 -5.793941 4.320928 -1.526634 4.517105 -2.763090 -4.063030 13.386488 0.000000 0.000000 0.000000 -4.795841 -6.319465 36.389563 -6.792206 2.677815 -25.433404 -4.370455 14.900099 26.421508 16.361779 -3.554971 -21.420924 0.000000 0.000000 0.000000 -9.574883 -28.530869 3.679279 -38.606758 -15.129446 0.449671 -12.967518 -63.603817 0.072679 0.000000 0.000000 0.000000 29.385913 4.845925 16.859709 53.886323 43.410812 10.627900 14.920629 51.431067 13.655075 0.000000 0.000000 0.000000 
